<?xml version="1.0"?>
<svg xmlns="http://www.w3.org/2000/svg" id="Layer_5" enable-background="new 0 0 64 64" height="512px" viewBox="0 0 64 64" width="512px"><g><path d="m61.866 43.48-4.264-4.264c1.523-2.732 2.398-5.872 2.398-9.216 0-10.477-8.523-19-19-19-4.378 0-8.403 1.503-11.619 4h-11.107c1.667-1.467 2.726-3.61 2.726-6 0-4.411-3.589-8-8-8s-8 3.589-8 8c0 2.518 1.172 4.765 2.997 6.233-4 .914-6.997 4.494-6.997 8.767v6c0 3.164 2.112 5.842 5 6.705v22.295c0 2.206 1.794 4 4 4 1.2 0 2.266-.542 3-1.382.734.84 1.8 1.382 3 1.382 2.206 0 4-1.794 4-4v-1.586l8.414-8.414-1-1 2.558-2.558c2.074 1.486 4.451 2.571 7.028 3.126v5.213l2.416.603-1.281 2.136 5.347 5.347 2.134-1.282.603 2.415h7.562l.603-2.416 2.134 1.282 5.347-5.347-1.281-2.136 2.416-.602v-7.562l-2.416-.603zm-3.866-13.48c0 9.374-7.626 17-17 17s-17-7.626-17-17 7.626-17 17-17 17 7.626 17 17zm-3 20c0 2.757-2.243 5-5 5s-5-2.243-5-5c0-.516.102-1.013.254-1.498 2.476-.569 4.764-1.622 6.768-3.056 1.795.796 2.978 2.562 2.978 4.554zm-33-7.414-2 2v-7.586h.5c.966 0 1.842-.394 2.476-1.029.606 1.825 1.484 3.523 2.582 5.057l-2.558 2.558zm0-12.586c0 .122.016.24.018.361-.461-.224-.972-.361-1.518-.361h-.5v-6.5c0-.827.673-1.5 1.5-1.5h2.29c-1.136 2.435-1.79 5.14-1.79 8zm-8.041-5.373-.959.959-.959-.959.741-7.627h.435zm-6.959-15.627c0-3.309 2.691-6 6-6s6 2.691 6 6-2.691 6-6 6-6-2.691-6-6zm3 8h.773l-.814 8.373 3.041 3.041 3.041-3.041-.814-8.373h11.955c-.865.919-1.636 1.923-2.307 3h-3.375c-1.93 0-3.5 1.57-3.5 3.5v6.5h-9c-.551 0-1-.448-1-1v-7h-2v6h-3v-4c0-3.859 3.14-7 7-7zm-7 13h3.184c.414 1.161 1.514 2 2.816 2h11.5c.827 0 1.5.673 1.5 1.5s-.673 1.5-1.5 1.5h-12.5c-2.757 0-5-2.243-5-5zm13 31c-1.103 0-2-.897-2-2v-18h-2v18c0 1.103-.897 2-2 2s-2-.897-2-2v-22h10v22c0 1.103-.897 2-2 2zm4-6.414v-7.172l2-2 3.586 3.586zm6-8-1.586-1.586 2.402-2.402c.497.56 1.026 1.088 1.586 1.586zm35 1.195v4.438l-1.949.486-.534.206-.466 1.139 1.296 2.159-3.138 3.138-2.158-1.295-1.22.496-.612 2.452h-4.438l-.487-1.949-.203-.535-1.142-.464-2.158 1.295-3.138-3.138 1.296-2.159-.5-1.22-2.449-.611v-3.326c.658.069 1.324.107 2 .107.71 0 1.408-.046 2.098-.122-.06.369-.098.742-.098 1.122 0 3.859 3.14 7 7 7s7-3.141 7-7c0-2.452-1.283-4.655-3.296-5.913 1.043-.942 1.984-1.991 2.799-3.141l2.844 2.844-1.296 2.159.503 1.22z" data-original="#000000" class="active-path" data-old_color="#000000" fill="#ED4852"/><path d="m63 6c0-2.757-2.243-5-5-5h-4c-2.757 0-5 2.243-5 5v5h9c2.757 0 5-2.243 5-5zm-12 0c0-1.654 1.346-3 3-3h4c1.654 0 3 1.346 3 3s-1.346 3-3 3h-7z" data-original="#000000" class="active-path" data-old_color="#000000" fill="#ED4852"/><path d="m53 5h2v2h-2z" data-original="#000000" class="active-path" data-old_color="#000000" fill="#ED4852"/><path d="m57 5h2v2h-2z" data-original="#000000" class="active-path" data-old_color="#000000" fill="#ED4852"/><path d="m41 45c8.271 0 15-6.729 15-15s-6.729-15-15-15-15 6.729-15 15 6.729 15 15 15zm-5-10h2v7.637c-.688-.163-1.359-.371-2-.64zm-2 5.937c-.718-.461-1.388-.989-2-1.578v-10.359h2zm6 2.012v-21.949h2v21.949c-.331.026-.662.051-1 .051s-.669-.025-1-.051zm4-11.949h2v10.997c-.641.268-1.312.476-2 .64zm6 8.359c-.612.589-1.282 1.117-2 1.578v-13.937h2zm-9-22.359c7.168 0 13 5.832 13 13 0 2.535-.74 4.895-2 6.896v-11.896h-6v4h-2v-10h-6v14h-2v-6h-6v9.896c-1.26-2.002-2-4.362-2-6.896 0-7.168 5.832-13 13-13z" data-original="#000000" class="active-path" data-old_color="#000000" fill="#ED4852"/></g> </svg>
